<svg xmlns="http://www.w3.org/2000/svg" viewBox="0 0 458.37 437.84"><path fill="#c11f3a" d="M225.26 259.69c0 9.66-3.32 18.52-9.96 26.57-6.64 8.06-16.41 12.08-29.29 12.08l45.9 139.51h-90.59L99.05 298.34H87.57v139.51H0V0h166.08c20.53 0 35.53 5.13 44.99 15.4 9.46 10.27 14.19 24.06 14.19 41.37v202.92ZM87.57 76.7v150.98h42.88c5.63 0 8.45-3.02 8.45-9.06V85.76c0-6.04-2.82-9.06-8.45-9.06H87.57Z"/><path fill="#383838" d="m283.24 437.84-15.7-81.53h94.21c6.84 0 10.27-3.02 10.27-9.06v-79.72c0-6.04-1.21-9.66-3.62-10.87s-6.64-1.81-12.68-1.81h-45.29c-6.45 0-12.59-.5-18.42-1.51-5.84-1-11.08-3.32-15.7-6.95-4.63-3.62-8.26-8.65-10.87-15.1-2.62-6.44-3.93-15.1-3.93-25.97V56.77c0-17.31 4.73-31.1 14.19-41.37C284.16 5.13 299.16 0 319.69 0h120.78l15.1 81.53h-99.04c-7.25 0-10.87 3.23-10.87 9.66v79.72c0 4.44 1.1 7.45 3.32 9.06 2.21 1.61 5.53 2.42 9.96 2.42h54.96c14.09 0 24.86 3.32 32.31 9.96 7.44 6.64 11.17 18.22 11.17 34.73v144.34c0 24.16-4.94 41.27-14.8 51.33-9.87 10.07-27.28 15.1-52.24 15.1h-108.1Z"/></svg>
